<?xml version="1.0" standalone="no"?>
<!DOCTYPE svg PUBLIC "-//W3C//DTD SVG 20010904//EN"
 "http://www.w3.org/TR/2001/REC-SVG-20010904/DTD/svg10.dtd">
<svg version="1.0" xmlns="http://www.w3.org/2000/svg"
 width="2653.000000pt" height="4257.000000pt" viewBox="0 0 2653.000000 4257.000000"
 preserveAspectRatio="xMidYMid meet">

<g transform="translate(0.000000,4257.000000) scale(0.100000,-0.100000)"
fill="#000000" stroke="none">
<path d="M19288 42083 l-518 -3 0 -14045 0 -14045 3615 0 3615 0 0 14050 0
14050 -3097 -2 c-1704 -2 -3331 -4 -3615 -5z m5296 -1475 c11 -93 25 -857 36
-1903 46 -4504 52 -17644 10 -21650 -10 -931 -25 -1641 -36 -1670 -6 -13 -241
-15 -2218 -13 l-2211 3 -3 12630 c-1 6947 0 12636 3 12643 3 9 454 12 2209 12
l2204 0 6 -52z"/>
<path d="M9730 28025 l0 -14045 3569 0 3568 0 6 128 c74 1448 86 19976 17
26207 -10 947 -26 1705 -36 1738 -5 16 -184 17 -3565 17 l-3559 0 0 -14045z
m5784 12588 c11 -120 25 -874 36 -1903 47 -4477 53 -17630 10 -21585 -10 -902
-26 -1650 -37 -1693 l-5 -22 -2177 2 -2176 3 -7 95 c-50 709 -88 7618 -88
15900 0 5754 15 8787 46 9188 l7 82 2192 0 2192 0 7 -67z"/>
<path d="M486 42008 c-3 -18 -10 -303 -16 -633 -41 -2385 -41 -16565 0 -23315
17 -2899 34 -4034 60 -4050 46 -29 714 -41 2507 -47 2364 -7 4203 18 4591 64
l52 6 0 14003 0 14004 -3594 0 -3594 0 -6 -32z m5768 -1357 c24 -25 28 -40 38
-132 7 -72 9 -3902 6 -12554 l-3 -12450 -31 -50 -31 -50 -2168 -3 -2169 -2
-37 36 -36 36 -13 156 c-10 124 -11 2732 -8 12537 4 11913 5 12382 22 12420
10 22 22 50 27 63 l9 22 2183 0 2183 0 28 -29z"/>
<path d="M450 8865 l0 -3295 1674 0 1674 0 34 -57 33 -58 7 -2415 c5 -1433 12
-2441 17 -2479 5 -35 14 -68 19 -73 5 -5 30 -15 55 -23 l46 -14 133 157 c73
86 441 519 818 962 1285 1510 1766 2082 2388 2841 362 443 520 610 709 748
298 219 608 340 1008 397 108 15 226 17 1190 13 1883 -7 10052 0 12070 11
2471 13 2953 26 3193 86 224 56 379 174 466 357 52 108 73 187 86 323 5 55 14
1305 21 2840 11 2581 11 2746 -5 2840 -10 54 -20 107 -22 117 -5 16 -624 17
-12810 17 l-12804 0 0 -3295z m24160 -9 l0 -1885 -102 -6 c-57 -3 -3696 -9
-8088 -13 -7338 -7 -7994 -9 -8090 -24 -257 -40 -455 -100 -642 -193 -194 -97
-317 -185 -481 -345 -130 -125 -178 -183 -332 -400 -340 -476 -691 -847 -1151
-1216 -145 -116 -486 -365 -492 -359 -15 15 -25 399 -33 1330 -5 600 -12 1111
-15 1136 l-6 46 -591 6 c-326 4 -1061 7 -1633 7 -961 0 -1042 1 -1048 17 -11
28 -35 258 -46 443 -21 355 -31 722 -36 1400 -8 835 8 1524 42 1873 l7 67
11368 0 11369 0 0 -1884z"/>
</g>
</svg>
