<svg width="2652.9999999999995" height="4257" xmlns="http://www.w3.org/2000/svg" preserveAspectRatio="xMidYMid meet">

 <g>
  <title>background</title>
  <rect fill="none" id="canvas_background" height="602" width="802" y="-1" x="-1"/>
 </g>
 <g>
  <title>Layer 1</title>
  <g id="svg_1" fill="#000000" transform="translate(0,4257) scale(0.10000000149011612,-0.10000000149011612) ">
   <path id="svg_2" d="m19288,42083l-518,-3l0,-14045l0,-14045l3615,0l3615,0l0,14050l0,14050l-3097,-2c-1704,-2 -3331,-4 -3615,-5zm5296,-1475c11,-93 25,-857 36,-1903c46,-4504 52,-17644 10,-21650c-10,-931 -25,-1641 -36,-1670c-6,-13 -241,-15 -2218,-13l-2211,3l-3,12630c-1,6947 0,12636 3,12643c3,9 454,12 2209,12l2204,0l6,-52z"/>
   <path id="svg_3" d="m9730,28025l0,-14045l3569,0l3568,0l6,128c74,1448 86,19976 17,26207c-10,947 -26,1705 -36,1738c-5,16 -184,17 -3565,17l-3559,0l0,-14045zm5784,12588c11,-120 25,-874 36,-1903c47,-4477 53,-17630 10,-21585c-10,-902 -26,-1650 -37,-1693l-5,-22l-2177,2l-2176,3l-7,95c-50,709 -88,7618 -88,15900c0,5754 15,8787 46,9188l7,82l2192,0l2192,0l7,-67z"/>
   <path id="svg_4" d="m486,42008c-3,-18 -10,-303 -16,-633c-41,-2385 -41,-16565 0,-23315c17,-2899 34,-4034 60,-4050c46,-29 714,-41 2507,-47c2364,-7 4203,18 4591,64l52,6l0,14003l0,14004l-3594,0l-3594,0l-6,-32zm5768,-1357c24,-25 28,-40 38,-132c7,-72 9,-3902 6,-12554l-3,-12450l-31,-50l-31,-50l-2168,-3l-2169,-2l-37,36l-36,36l-13,156c-10,124 -11,2732 -8,12537c4,11913 5,12382 22,12420c10,22 22,50 27,63l9,22l2183,0l2183,0l28,-29z"/>
   <path id="svg_5" d="m450,8865l0,-3295l1674,0l1674,0l34,-57l33,-58l7,-2415c5,-1433 12,-2441 17,-2479c5,-35 14,-68 19,-73c5,-5 30,-15 55,-23l46,-14l133,157c73,86 441,519 818,962c1285,1510 1766,2082 2388,2841c362,443 520,610 709,748c298,219 608,340 1008,397c108,15 226,17 1190,13c1883,-7 10052,0 12070,11c2471,13 2953,26 3193,86c224,56 379,174 466,357c52,108 73,187 86,323c5,55 14,1305 21,2840c11,2581 11,2746 -5,2840c-10,54 -20,107 -22,117c-5,16 -624,17 -12810,17l-12804,0l0,-3295zm24160,-9l0,-1885l-102,-6c-57,-3 -3696,-9 -8088,-13c-7338,-7 -7994,-9 -8090,-24c-257,-40 -455,-100 -642,-193c-194,-97 -317,-185 -481,-345c-130,-125 -178,-183 -332,-400c-340,-476 -691,-847 -1151,-1216c-145,-116 -486,-365 -492,-359c-15,15 -25,399 -33,1330c-5,600 -12,1111 -15,1136l-6,46l-591,6c-326,4 -1061,7 -1633,7c-961,0 -1042,1 -1048,17c-11,28 -35,258 -46,443c-21,355 -31,722 -36,1400c-8,835 8,1524 42,1873l7,67l11368,0l11369,0l0,-1884z"/>
  </g>
 </g>
</svg>